<svg width="16" height="16" viewBox="0 0 16 16" fill="none" xmlns="http://www.w3.org/2000/svg">
<path d="M12.817 7.21875L13.192 6.875L12.1295 5.8125L10.192 3.875L9.12946 2.8125L8.75446 3.15625L8.06696 3.875L1.84821 10.0938C1.51488 10.4271 1.2753 10.8125 1.12946 11.25L0.0357143 15.0312C-0.047619 15.3021 0.014881 15.5417 0.223214 15.75C0.431548 15.9583 0.681548 16.0312 0.973214 15.9688L4.72321 14.8438C5.18155 14.7188 5.57738 14.4896 5.91071 14.1562L12.1295 7.9375L12.817 7.21875V7.21875V7.21875M5.00446 12.4688L4.72321 13.1875C4.59821 13.2917 4.4628 13.3646 4.31696 13.4062L1.84821 14.125L2.56696 11.6875C2.62946 11.5417 2.70238 11.4062 2.78571 11.2812L3.50446 11V12C3.5253 12.2917 3.69196 12.4583 4.00446 12.5H5.00446V12.4688V12.4688M11.3482 0.59375L10.8795 1.03125L10.192 1.75L9.81696 2.09375L10.8795 3.15625L12.817 5.09375L13.8795 6.15625L14.2232 5.8125L14.942 5.09375L15.4107 4.65625C15.7857 4.23958 15.9732 3.76042 15.9732 3.21875C15.9732 2.69792 15.7857 2.22917 15.4107 1.8125L14.1607 0.59375C13.7649 0.197917 13.2961 0 12.7545 0C12.2336 0 11.7649 0.197917 11.3482 0.59375V0.59375V0.59375M9.84821 5.84375L5.34821 10.3438C5.11905 10.5312 4.88988 10.5312 4.66071 10.3438C4.45238 10.0938 4.45238 9.85417 4.66071 9.625L9.16071 5.125C9.38988 4.9375 9.61905 4.9375 9.84821 5.125C10.0565 5.35417 10.0565 5.59375 9.84821 5.84375V5.84375V5.84375" fill="#888888"/>
</svg>
