<svg width="14" height="14" viewBox="0 0 14 14" fill="none" xmlns="http://www.w3.org/2000/svg">
<path d="M2 1.5C1.6875 1.52083 1.52083 1.6875 1.5 2V12C1.52083 12.3125 1.6875 12.4792 2 12.5H12C12.3125 12.4792 12.4792 12.3125 12.5 12V2C12.4792 1.6875 12.3125 1.52083 12 1.5H2V1.5V1.5M0 2C0.0208333 1.4375 0.21875 0.96875 0.59375 0.59375V0.59375C0.96875 0.21875 1.4375 0.0208333 2 0H12C12.5625 0.0208333 13.0312 0.21875 13.4062 0.59375C13.7812 0.96875 13.9792 1.4375 14 2V12C13.9792 12.5625 13.7812 13.0312 13.4062 13.4062C13.0312 13.7812 12.5625 13.9792 12 14H2C1.4375 13.9792 0.96875 13.7812 0.59375 13.4062C0.21875 13.0312 0.0208333 12.5625 0 12V2V2V2M10.5312 5.53125L6.53125 9.53125C6.17708 9.82292 5.82292 9.82292 5.46875 9.53125L3.46875 7.53125C3.17708 7.17708 3.17708 6.82292 3.46875 6.46875C3.82292 6.17708 4.17708 6.17708 4.53125 6.46875L6 7.9375L9.46875 4.46875C9.82292 4.17708 10.1771 4.17708 10.5312 4.46875C10.8229 4.82292 10.8229 5.17708 10.5312 5.53125V5.53125V5.53125" fill="#16A34A"/>
</svg>
