<svg width="16" height="16" viewBox="0 0 16 16" fill="none" xmlns="http://www.w3.org/2000/svg">
<path d="M8 16C9.45833 15.9792 10.7917 15.625 12 14.9375V14.9375C13.2083 14.2292 14.1875 13.25 14.9375 12C15.6458 10.7292 16 9.39583 16 8C16 6.60417 15.6458 5.27083 14.9375 4C14.1875 2.75 13.2083 1.77083 12 1.0625C10.7917 0.375 9.45833 0.0208333 8 0C6.54167 0.0208333 5.20833 0.375 4 1.0625C2.79167 1.77083 1.8125 2.75 1.0625 4C0.354167 5.27083 0 6.60417 0 8C0 9.39583 0.354167 10.7292 1.0625 12C1.8125 13.25 2.79167 14.2292 4 14.9375C5.20833 15.625 6.54167 15.9792 8 16V16V16M11.5312 6.53125L7.53125 10.5312C7.17708 10.8229 6.82292 10.8229 6.46875 10.5312L4.46875 8.53125C4.17708 8.17708 4.17708 7.82292 4.46875 7.46875C4.82292 7.17708 5.17708 7.17708 5.53125 7.46875L7 8.9375L10.4688 5.46875C10.8229 5.17708 11.1771 5.17708 11.5312 5.46875C11.8229 5.82292 11.8229 6.17708 11.5312 6.53125V6.53125V6.53125" fill="#22C55E"/>
</svg>
