<svg width="59" height="24" viewBox="0 0 59 24" fill="none" xmlns="http://www.w3.org/2000/svg">
<g filter="url(#filter0_d_2_957)">
<rect width="58.7344" height="23.7191" rx="11.8595" fill="#FFDAD6" shape-rendering="crispEdges"/>
<path d="M27.4688 16.0898H26.6719V13.5234H32.0039V15.8555H27.4688V16.0898V16.0898M33.457 16.3477V12.6094H25.3477L25.3594 16.0078C25.3594 16.5547 25.3711 17.0977 25.3945 17.6367C25.0977 17.6055 24.8047 17.6055 24.5156 17.6367C24.5391 17.0977 24.5508 16.5547 24.5508 16.0078V12.0234L34.2656 12.0352V16.5703C34.2656 16.8594 34.1523 17.1055 33.9258 17.3086C33.6133 17.5898 33.0312 17.7266 32.1797 17.7188C32.2656 17.3438 32.1797 17.0156 31.9219 16.7344C32.1562 16.7656 32.4434 16.7832 32.7832 16.7871C33.123 16.791 33.3203 16.7695 33.375 16.7227C33.4297 16.6758 33.457 16.5508 33.457 16.3477V16.3477M26.4844 11.1094C26.5781 10.3281 26.5781 9.54688 26.4844 8.76562H32.1797C32.0781 9.54688 32.0703 10.3281 32.1562 11.1094H26.4844V11.1094M34.7344 7.26562C34.7109 7.47656 34.7109 7.6875 34.7344 7.89844C34.3438 7.875 33.9531 7.86328 33.5625 7.86328H29.7539C29.7461 7.88672 29.7305 7.88672 29.707 7.86328H25.1719C24.7812 7.86328 24.3906 7.875 24 7.89844C24.0234 7.6875 24.0234 7.47656 24 7.26562C24.3906 7.28125 24.7812 7.28906 25.1719 7.28906H28.8164L27.9727 6.73828L28.4531 6L30.2227 7.14844L30.1289 7.28906H33.5625C33.9531 7.28906 34.3438 7.28125 34.7344 7.26562V7.26562M31.1953 14.0977H27.4688V15.2695H31.1953V14.0977V14.0977M27.2812 9.33984V10.5352H31.3594L31.3711 9.33984H27.2812V9.33984" fill="#93000A"/>
</g>
<defs>
<filter id="filter0_d_2_957" x="-2" y="-1" width="62.7344" height="27.7191" filterUnits="userSpaceOnUse" color-interpolation-filters="sRGB">
<feFlood flood-opacity="0" result="BackgroundImageFix"/>
<feColorMatrix in="SourceAlpha" type="matrix" values="0 0 0 0 0 0 0 0 0 0 0 0 0 0 0 0 0 0 127 0" result="hardAlpha"/>
<feOffset dy="1"/>
<feGaussianBlur stdDeviation="1"/>
<feComposite in2="hardAlpha" operator="out"/>
<feColorMatrix type="matrix" values="0 0 0 0 0 0 0 0 0 0 0 0 0 0 0 0 0 0 0.05 0"/>
<feBlend mode="normal" in2="BackgroundImageFix" result="effect1_dropShadow_2_957"/>
<feBlend mode="normal" in="SourceGraphic" in2="effect1_dropShadow_2_957" result="shape"/>
</filter>
</defs>
</svg>
