<svg width="10" height="10" viewBox="0 0 10 10" fill="none" xmlns="http://www.w3.org/2000/svg">
<path d="M5.9375 0.9375C5.92448 0.585938 5.76823 0.3125 5.46875 0.117188C5.15625 -0.0390625 4.84375 -0.0390625 4.53125 0.117188C4.23177 0.3125 4.07552 0.585938 4.0625 0.9375C4.07552 1.28906 4.23177 1.5625 4.53125 1.75781C4.84375 1.91406 5.15625 1.91406 5.46875 1.75781C5.76823 1.5625 5.92448 1.28906 5.9375 0.9375V0.9375V0.9375M5.9375 9.0625C5.92448 8.71094 5.76823 8.4375 5.46875 8.24219C5.15625 8.08594 4.84375 8.08594 4.53125 8.24219C4.23177 8.4375 4.07552 8.71094 4.0625 9.0625C4.07552 9.41406 4.23177 9.6875 4.53125 9.88281C4.84375 10.0391 5.15625 10.0391 5.46875 9.88281C5.76823 9.6875 5.92448 9.41406 5.9375 9.0625V9.0625V9.0625M0.9375 5.9375C1.28906 5.92448 1.5625 5.76823 1.75781 5.46875C1.91406 5.15625 1.91406 4.84375 1.75781 4.53125C1.5625 4.23177 1.28906 4.07552 0.9375 4.0625C0.585938 4.07552 0.3125 4.23177 0.117188 4.53125C-0.0390625 4.84375 -0.0390625 5.15625 0.117188 5.46875C0.3125 5.76823 0.585938 5.92448 0.9375 5.9375V5.9375V5.9375M10 5C9.98698 4.64844 9.83073 4.375 9.53125 4.17969C9.21875 4.02344 8.90625 4.02344 8.59375 4.17969C8.29427 4.375 8.13802 4.64844 8.125 5C8.13802 5.35156 8.29427 5.625 8.59375 5.82031C8.90625 5.97656 9.21875 5.97656 9.53125 5.82031C9.83073 5.625 9.98698 5.35156 10 5V5V5M2.79297 8.53516C3.04036 8.27474 3.11849 7.97526 3.02734 7.63672C2.92318 7.29818 2.70182 7.07682 2.36328 6.97266C2.02474 6.88151 1.72526 6.95964 1.46484 7.20703C1.21745 7.46745 1.13932 7.76693 1.23047 8.10547C1.32161 8.45703 1.54297 8.67839 1.89453 8.76953C2.23307 8.86068 2.53255 8.78255 2.79297 8.53516V8.53516V8.53516M2.79297 2.79297C3.05339 2.53255 3.13802 2.22656 3.04688 1.875C2.95573 1.52344 2.73438 1.29557 2.38281 1.19141C2.03125 1.11328 1.72526 1.20443 1.46484 1.46484C1.21745 1.72526 1.13932 2.02474 1.23047 2.36328C1.32161 2.70182 1.54297 2.92318 1.89453 3.02734C2.23307 3.11849 2.53255 3.04036 2.79297 2.79297V2.79297V2.79297M7.20703 8.53516C7.46745 8.78255 7.76693 8.86068 8.10547 8.76953C8.45703 8.67839 8.67839 8.45703 8.76953 8.10547C8.86068 7.76693 8.78255 7.46745 8.53516 7.20703C8.27474 6.95964 7.97526 6.88151 7.63672 6.97266C7.29818 7.07682 7.07682 7.29818 6.97266 7.63672C6.88151 7.97526 6.95964 8.27474 7.20703 8.53516V8.53516V8.53516" fill="#888888"/>
</svg>
