<svg width="16" height="16" viewBox="0 0 16 16" fill="none" xmlns="http://www.w3.org/2000/svg">
<path d="M9.5 1.5C9.47917 0.9375 9.22917 0.5 8.75 0.1875C8.25 -0.0625 7.75 -0.0625 7.25 0.1875C6.77083 0.5 6.52083 0.9375 6.5 1.5C6.52083 2.0625 6.77083 2.5 7.25 2.8125C7.75 3.0625 8.25 3.0625 8.75 2.8125C9.22917 2.5 9.47917 2.0625 9.5 1.5V1.5V1.5M9.5 14.5C9.47917 13.9375 9.22917 13.5 8.75 13.1875C8.25 12.9375 7.75 12.9375 7.25 13.1875C6.77083 13.5 6.52083 13.9375 6.5 14.5C6.52083 15.0625 6.77083 15.5 7.25 15.8125C7.75 16.0625 8.25 16.0625 8.75 15.8125C9.22917 15.5 9.47917 15.0625 9.5 14.5V14.5V14.5M1.5 9.5C2.0625 9.47917 2.5 9.22917 2.8125 8.75C3.0625 8.25 3.0625 7.75 2.8125 7.25C2.5 6.77083 2.0625 6.52083 1.5 6.5C0.9375 6.52083 0.5 6.77083 0.1875 7.25C-0.0625 7.75 -0.0625 8.25 0.1875 8.75C0.5 9.22917 0.9375 9.47917 1.5 9.5V9.5V9.5M16 8C15.9792 7.4375 15.7292 7 15.25 6.6875C14.75 6.4375 14.25 6.4375 13.75 6.6875C13.2708 7 13.0208 7.4375 13 8C13.0208 8.5625 13.2708 9 13.75 9.3125C14.25 9.5625 14.75 9.5625 15.25 9.3125C15.7292 9 15.9792 8.5625 16 8V8V8M4.46875 13.6562C4.86458 13.2396 4.98958 12.7604 4.84375 12.2188C4.67708 11.6771 4.32292 11.3229 3.78125 11.1562C3.23958 11.0104 2.76042 11.1354 2.34375 11.5312C1.94792 11.9479 1.82292 12.4271 1.96875 12.9688C2.11458 13.5312 2.46875 13.8854 3.03125 14.0312C3.57292 14.1771 4.05208 14.0521 4.46875 13.6562V13.6562V13.6562M4.46875 4.46875C4.88542 4.05208 5.02083 3.5625 4.875 3C4.72917 2.4375 4.375 2.07292 3.8125 1.90625C3.25 1.78125 2.76042 1.92708 2.34375 2.34375C1.94792 2.76042 1.82292 3.23958 1.96875 3.78125C2.11458 4.32292 2.46875 4.67708 3.03125 4.84375C3.57292 4.98958 4.05208 4.86458 4.46875 4.46875V4.46875V4.46875M11.5312 13.6562C11.9479 14.0521 12.4271 14.1771 12.9688 14.0312C13.5312 13.8854 13.8854 13.5312 14.0312 12.9688C14.1771 12.4271 14.0521 11.9479 13.6562 11.5312C13.2396 11.1354 12.7604 11.0104 12.2188 11.1562C11.6771 11.3229 11.3229 11.6771 11.1562 12.2188C11.0104 12.7604 11.1354 13.2396 11.5312 13.6562V13.6562V13.6562" fill="#3B82F6"/>
</svg>
