<svg width="245" height="26" viewBox="0 0 245 26" fill="none" xmlns="http://www.w3.org/2000/svg">
<path d="M127.157 1.83203L126.323 2.48828L125.038 0.888672L125.858 0.21875L127.157 1.83203V1.83203M124.34 9.25586C123.566 7.75195 123.192 5.74219 123.219 3.22656H117.299C116.807 3.22656 116.319 3.24023 115.836 3.26758C115.864 3.00326 115.864 2.73438 115.836 2.46094C116.319 2.48828 116.807 2.50195 117.299 2.50195H123.206L123.165 0C123.52 0.0364583 123.871 0.0364583 124.217 0L124.176 2.50195H127.293C127.777 2.50195 128.264 2.48828 128.756 2.46094C128.729 2.73438 128.729 3.00326 128.756 3.26758C128.264 3.24023 127.777 3.22656 127.293 3.22656H124.176C124.185 5.35026 124.45 7.05013 124.969 8.32617C125.534 7.25977 125.995 6.12044 126.35 4.9082C126.724 5.03581 127.102 5.1224 127.485 5.16797C127.066 6.6901 126.391 8.07552 125.461 9.32422C126.054 10.3451 126.824 11.1745 127.772 11.8125C127.772 11.1198 127.754 10.4362 127.717 9.76172C128.036 9.96224 128.387 10.0579 128.77 10.0488C128.852 10.9147 128.838 11.7852 128.729 12.6602C128.729 12.7969 128.679 12.9154 128.579 13.0156C128.405 13.1888 128.209 13.2253 127.991 13.125C126.696 12.3958 125.639 11.3887 124.819 10.1035C123.534 11.5801 122.016 12.6191 120.266 13.2207C120.184 12.8288 119.997 12.4961 119.706 12.2227C120.544 11.9492 121.383 11.5641 122.221 11.0674C123.06 10.5706 123.766 9.9668 124.34 9.25586V9.25586M115.618 10.8145C117.267 10.6413 118.794 10.3724 120.198 10.0078L122.481 9.39258V10.0352C119.665 10.8008 117.486 11.4479 115.946 11.9766C115.955 11.5573 115.846 11.1699 115.618 10.8145V10.8145M117.846 9.07812H116.875V4.64844H121.346V9.07812H120.375V8.44922H117.846V9.07812V9.07812M120.375 5.37305H117.846V7.72461H120.375V5.37305V5.37305" fill="#888888"/>
</svg>
