<svg width="32" height="32" viewBox="0 0 32 32" fill="none" xmlns="http://www.w3.org/2000/svg">
<path d="M10.875 20.25C11.5833 19.7083 12.375 19.2812 13.25 18.9687C14.125 18.6562 15.0416 18.5 16 18.5C16.9583 18.5 17.875 18.6562 18.75 18.9687C19.625 19.2812 20.4166 19.7083 21.125 20.25C21.6111 19.6806 21.9895 19.0347 22.2604 18.3125C22.5312 17.5903 22.6666 16.8194 22.6666 16C22.6666 14.1528 22.0173 12.5799 20.7187 11.2812C19.4201 9.98264 17.8472 9.33333 16 9.33333C14.1527 9.33333 12.5798 9.98264 11.2812 11.2812C9.9826 12.5799 9.33329 14.1528 9.33329 16C9.33329 16.8194 9.46871 17.5903 9.73954 18.3125C10.0104 19.0347 10.3888 19.6806 10.875 20.25V20.25M16 16.8333C15.1805 16.8333 14.4895 16.5521 13.927 15.9896C13.3645 15.4271 13.0833 14.7361 13.0833 13.9167C13.0833 13.0972 13.3645 12.4062 13.927 11.8437C14.4895 11.2812 15.1805 11 16 11C16.8194 11 17.5104 11.2812 18.0729 11.8437C18.6354 12.4062 18.9166 13.0972 18.9166 13.9167C18.9166 14.7361 18.6354 15.4271 18.0729 15.9896C17.5104 16.5521 16.8194 16.8333 16 16.8333V16.8333M16 24.3333C14.8472 24.3333 13.7638 24.1146 12.75 23.6771C11.7361 23.2396 10.8541 22.6458 10.1041 21.8958C9.35413 21.1458 8.76038 20.2639 8.32288 19.25C7.88538 18.2361 7.66663 17.1528 7.66663 16C7.66663 14.8472 7.88538 13.7639 8.32288 12.75C8.76038 11.7361 9.35413 10.8542 10.1041 10.1042C10.8541 9.35417 11.7361 8.76042 12.75 8.32292C13.7638 7.88542 14.8472 7.66667 16 7.66667C17.1527 7.66667 18.2361 7.88542 19.25 8.32292C20.2638 8.76042 21.1458 9.35417 21.8958 10.1042C22.6458 10.8542 23.2395 11.7361 23.677 12.75C24.1145 13.7639 24.3333 14.8472 24.3333 16C24.3333 17.1528 24.1145 18.2361 23.677 19.25C23.2395 20.2639 22.6458 21.1458 21.8958 21.8958C21.1458 22.6458 20.2638 23.2396 19.25 23.6771C18.2361 24.1146 17.1527 24.3333 16 24.3333V24.3333M16 22.6667C16.7361 22.6667 17.4305 22.559 18.0833 22.3437C18.7361 22.1285 19.3333 21.8194 19.875 21.4167C19.3333 21.0139 18.7361 20.7049 18.0833 20.4896C17.4305 20.2743 16.7361 20.1667 16 20.1667C15.2638 20.1667 14.5694 20.2743 13.9166 20.4896C13.2638 20.7049 12.6666 21.0139 12.125 21.4167C12.6666 21.8194 13.2638 22.1285 13.9166 22.3437C14.5694 22.559 15.2638 22.6667 16 22.6667V22.6667M16 15.1667C16.3611 15.1667 16.6597 15.0486 16.8958 14.8125C17.1319 14.5764 17.25 14.2778 17.25 13.9167C17.25 13.5556 17.1319 13.2569 16.8958 13.0208C16.6597 12.7847 16.3611 12.6667 16 12.6667C15.6388 12.6667 15.3402 12.7847 15.1041 13.0208C14.868 13.2569 14.75 13.5556 14.75 13.9167C14.75 14.2778 14.868 14.5764 15.1041 14.8125C15.3402 15.0486 15.6388 15.1667 16 15.1667V15.1667M16 13.9167V13.9167V13.9167V13.9167V13.9167V13.9167V13.9167V13.9167V13.9167V13.9167M16 21.4167V21.4167V21.4167V21.4167V21.4167V21.4167V21.4167V21.4167V21.4167V21.4167" fill="#6B7280"/>
</svg>
