<svg width="16" height="16" viewBox="0 0 16 16" fill="none" xmlns="http://www.w3.org/2000/svg">
<path d="M8 16C9.45833 15.9792 10.7917 15.625 12 14.9375V14.9375C13.2083 14.2292 14.1875 13.25 14.9375 12C15.6458 10.7292 16 9.39583 16 8C16 6.60417 15.6458 5.27083 14.9375 4C14.1875 2.75 13.2083 1.77083 12 1.0625C10.7917 0.375 9.45833 0.0208333 8 0C6.54167 0.0208333 5.20833 0.375 4 1.0625C2.79167 1.77083 1.8125 2.75 1.0625 4C0.354167 5.27083 0 6.60417 0 8C0 9.39583 0.354167 10.7292 1.0625 12C1.8125 13.25 2.79167 14.2292 4 14.9375C5.20833 15.625 6.54167 15.9792 8 16V16V16M8 5C8.54167 5 9.04167 5.13542 9.5 5.40625V5.40625C9.95833 5.67708 10.3229 6.04167 10.5938 6.5C10.8646 6.97917 11 7.47917 11 8C11 8.52083 10.8646 9.02083 10.5938 9.5C10.3229 9.95833 9.95833 10.3229 9.5 10.5938C9.04167 10.8646 8.54167 11 8 11C7.45833 11 6.95833 10.8646 6.5 10.5938C6.04167 10.3229 5.67708 9.95833 5.40625 9.5C5.13542 9.02083 5 8.52083 5 8C5 7.47917 5.13542 6.97917 5.40625 6.5C5.67708 6.04167 6.04167 5.67708 6.5 5.40625C6.95833 5.13542 7.45833 5 8 5V5V5" fill="#FB923C"/>
</svg>
