<svg width="9" height="10" viewBox="0 0 9 10" fill="none" xmlns="http://www.w3.org/2000/svg">
<path d="M2.96875 0.46875C2.94271 0.182292 2.78646 0.0260417 2.5 0C2.21354 0.0260417 2.05729 0.182292 2.03125 0.46875V1.25H1.25C0.898438 1.26302 0.605469 1.38672 0.371094 1.62109C0.136719 1.85547 0.0130208 2.14844 0 2.5V2.8125V3.75V8.75C0.0130208 9.10156 0.136719 9.39453 0.371094 9.62891C0.605469 9.86328 0.898438 9.98698 1.25 10H7.5C7.85156 9.98698 8.14453 9.86328 8.37891 9.62891C8.61328 9.39453 8.73698 9.10156 8.75 8.75V3.75V2.8125V2.5C8.73698 2.14844 8.61328 1.85547 8.37891 1.62109C8.14453 1.38672 7.85156 1.26302 7.5 1.25H6.71875V0.46875C6.69271 0.182292 6.53646 0.0260417 6.25 0C5.96354 0.0260417 5.80729 0.182292 5.78125 0.46875V1.25H2.96875V0.46875V0.46875V0.46875M0.9375 3.75H2.5V4.84375H0.9375V3.75V3.75V3.75M0.9375 5.78125H2.5V7.03125H0.9375V5.78125V5.78125V5.78125M3.4375 5.78125H5.3125V7.03125H3.4375V5.78125V5.78125V5.78125M6.25 5.78125H7.8125V7.03125H6.25V5.78125V5.78125V5.78125M7.8125 4.84375H6.25V3.75H7.8125V4.84375V4.84375V4.84375M7.8125 7.96875V8.75C7.79948 8.94531 7.69531 9.04948 7.5 9.0625H6.25V7.96875H7.8125V7.96875V7.96875M5.3125 7.96875V9.0625H3.4375V7.96875H5.3125V7.96875V7.96875M2.5 7.96875V9.0625H1.25C1.05469 9.04948 0.950521 8.94531 0.9375 8.75V7.96875H2.5V7.96875V7.96875M5.3125 4.84375H3.4375V3.75H5.3125V4.84375V4.84375V4.84375" fill="#888888"/>
</svg>
