<svg width="12" height="16" viewBox="0 0 12 16" fill="none" xmlns="http://www.w3.org/2000/svg">
<path d="M6 0C5.33333 0.0208333 4.75 0.208333 4.25 0.5625V0.5625C3.75 0.9375 3.39583 1.41667 3.1875 2H2C1.4375 2.02083 0.96875 2.21875 0.59375 2.59375C0.21875 2.96875 0.0208333 3.4375 0 4V14C0.0208333 14.5625 0.21875 15.0312 0.59375 15.4062C0.96875 15.7812 1.4375 15.9792 2 16H10C10.5625 15.9792 11.0312 15.7812 11.4062 15.4062C11.7812 15.0312 11.9792 14.5625 12 14V4C11.9792 3.4375 11.7812 2.96875 11.4062 2.59375C11.0312 2.21875 10.5625 2.02083 10 2H8.84375C8.61458 1.41667 8.25 0.9375 7.75 0.5625C7.25 0.208333 6.66667 0.0208333 6 0V0V0M6 2C6.29167 2 6.53125 2.09375 6.71875 2.28125V2.28125C6.90625 2.46875 7 2.70833 7 3C7 3.29167 6.90625 3.53125 6.71875 3.71875C6.53125 3.90625 6.29167 4 6 4C5.70833 4 5.46875 3.90625 5.28125 3.71875C5.09375 3.53125 5 3.29167 5 3C5 2.70833 5.09375 2.46875 5.28125 2.28125C5.46875 2.09375 5.70833 2 6 2V2V2M2.25 8.5C2.29167 8.04167 2.54167 7.79167 3 7.75C3.45833 7.79167 3.70833 8.04167 3.75 8.5C3.70833 8.95833 3.45833 9.20833 3 9.25C2.54167 9.20833 2.29167 8.95833 2.25 8.5V8.5V8.5M5.5 8H9.5C9.8125 8.02083 9.97917 8.1875 10 8.5C9.97917 8.8125 9.8125 8.97917 9.5 9H5.5C5.1875 8.97917 5.02083 8.8125 5 8.5C5.02083 8.1875 5.1875 8.02083 5.5 8V8V8M2.25 11.5C2.29167 11.0417 2.54167 10.7917 3 10.75C3.45833 10.7917 3.70833 11.0417 3.75 11.5C3.70833 11.9583 3.45833 12.2083 3 12.25C2.54167 12.2083 2.29167 11.9583 2.25 11.5V11.5V11.5M5 11.5C5.02083 11.1875 5.1875 11.0208 5.5 11H9.5C9.8125 11.0208 9.97917 11.1875 10 11.5C9.97917 11.8125 9.8125 11.9792 9.5 12H5.5C5.1875 11.9792 5.02083 11.8125 5 11.5V11.5V11.5" fill="#F59E0B"/>
</svg>
