<svg width="60" height="24" viewBox="0 0 60 24" fill="none" xmlns="http://www.w3.org/2000/svg">
<path d="M32.7656 16.2422L32.0391 16.8047L30.75 15.1641L31.4766 14.6016L32.7656 16.2422V16.2422M29.3672 10.957V15.3984L31.2773 13.6523L31.6523 14.2031C31.3789 14.4062 30.9531 14.8105 30.375 15.416C29.7969 16.0215 29.3086 16.5508 28.9102 17.0039L28.3594 16.3828C28.4688 16.0938 28.5234 15.7969 28.5234 15.4922V8.8125C28.5234 8.25 28.5117 7.68359 28.4883 7.11328C28.793 7.14453 29.0977 7.14453 29.4023 7.11328C29.4023 7.17578 29.4023 7.23828 29.4023 7.30078C29.8945 7.33984 30.582 7.28516 31.4648 7.13672V7.08984C31.5352 7.09766 31.6055 7.10156 31.6758 7.10156C32.4102 6.97656 32.9297 6.84375 33.2344 6.70312C33.5391 6.5625 33.7852 6.37109 33.9727 6.12891C34.1367 6.38672 34.3281 6.625 34.5469 6.84375C34.3203 7.05469 34.0566 7.21875 33.7559 7.33594C33.4551 7.45312 32.9922 7.5625 32.3672 7.66406L32.3438 9.05859C32.3438 9.69141 32.3516 10.1094 32.3672 10.3125H33.9492C34.3867 10.3125 34.8242 10.3047 35.2617 10.2891C35.2383 10.5234 35.2383 10.7578 35.2617 10.9922C34.8242 10.9688 34.3867 10.957 33.9492 10.957H32.4141C32.6484 12.9336 33.3984 14.4883 34.6641 15.6211C34.6641 15.0508 34.6484 14.4805 34.6172 13.9102C34.8984 14.0898 35.2031 14.1758 35.5312 14.168C35.6016 14.9414 35.5898 15.7109 35.4961 16.4766C35.4727 16.7031 35.3555 16.8477 35.1445 16.9102C35.0273 16.9336 34.9141 16.9141 34.8047 16.8516C32.9375 15.4766 31.8633 13.5117 31.582 10.957H29.3672V10.957M29.3672 8.01562V10.3125H31.5234L31.4766 7.78125L29.3672 8.01562V8.01562M28.1367 6.23438C27.8008 7.29688 27.375 8.28906 26.8594 9.21094V15.4102C26.8594 15.9648 26.875 16.5156 26.9062 17.0625C26.6094 17.0312 26.3125 17.0312 26.0156 17.0625C26.0391 16.5156 26.0508 15.9648 26.0508 15.4102V10.4414C25.6602 10.957 25.2227 11.4258 24.7383 11.8477C24.5586 11.5664 24.3125 11.3633 24 11.2383C24.4297 10.8789 24.832 10.4922 25.207 10.0781C25.832 9.39062 26.2812 8.71875 26.5547 8.0625C26.8047 7.41406 27.0156 6.72656 27.1875 6C27.4766 6.10938 27.793 6.1875 28.1367 6.23438V6.23438" fill="#3C4A46"/>
</svg>
