<svg width="12" height="12" viewBox="0 0 12 12" fill="none" xmlns="http://www.w3.org/2000/svg">
<path d="M8.76562 10.2422L8.03906 10.8047L6.75 9.16406L7.47656 8.60156L8.76562 10.2422V10.2422M5.36719 4.95703V9.39844L7.27734 7.65234L7.65234 8.20312C7.37891 8.40625 6.95312 8.81055 6.375 9.41602C5.79688 10.0215 5.30859 10.5508 4.91016 11.0039L4.35938 10.3828C4.46875 10.0938 4.52344 9.79688 4.52344 9.49219V2.8125C4.52344 2.25 4.51172 1.68359 4.48828 1.11328C4.79297 1.14453 5.09766 1.14453 5.40234 1.11328C5.40234 1.17578 5.40234 1.23828 5.40234 1.30078C5.89453 1.33984 6.58203 1.28516 7.46484 1.13672V1.08984C7.53516 1.09766 7.60547 1.10156 7.67578 1.10156C8.41016 0.976562 8.92969 0.84375 9.23438 0.703125C9.53906 0.5625 9.78516 0.371094 9.97266 0.128906C10.1367 0.386719 10.3281 0.625 10.5469 0.84375C10.3203 1.05469 10.0566 1.21875 9.75586 1.33594C9.45508 1.45312 8.99219 1.5625 8.36719 1.66406L8.34375 3.05859C8.34375 3.69141 8.35156 4.10938 8.36719 4.3125H9.94922C10.3867 4.3125 10.8242 4.30469 11.2617 4.28906C11.2383 4.52344 11.2383 4.75781 11.2617 4.99219C10.8242 4.96875 10.3867 4.95703 9.94922 4.95703H8.41406C8.64844 6.93359 9.39844 8.48828 10.6641 9.62109C10.6641 9.05078 10.6484 8.48047 10.6172 7.91016C10.8984 8.08984 11.2031 8.17578 11.5312 8.16797C11.6016 8.94141 11.5898 9.71094 11.4961 10.4766C11.4727 10.7031 11.3555 10.8477 11.1445 10.9102C11.0273 10.9336 10.9141 10.9141 10.8047 10.8516C8.9375 9.47656 7.86328 7.51172 7.58203 4.95703H5.36719V4.95703M5.36719 2.01562V4.3125H7.52344L7.47656 1.78125L5.36719 2.01562V2.01562M4.13672 0.234375C3.80078 1.29688 3.375 2.28906 2.85938 3.21094V9.41016C2.85938 9.96484 2.875 10.5156 2.90625 11.0625C2.60938 11.0312 2.3125 11.0312 2.01562 11.0625C2.03906 10.5156 2.05078 9.96484 2.05078 9.41016V4.44141C1.66016 4.95703 1.22266 5.42578 0.738281 5.84766C0.558594 5.56641 0.3125 5.36328 0 5.23828C0.429688 4.87891 0.832031 4.49219 1.20703 4.07812C1.83203 3.39062 2.28125 2.71875 2.55469 2.0625C2.80469 1.41406 3.01562 0.726562 3.1875 0C3.47656 0.109375 3.79297 0.1875 4.13672 0.234375V0.234375" fill="#3C4A46"/>
</svg>
