<svg width="6" height="6" viewBox="0 0 6 6" fill="none" xmlns="http://www.w3.org/2000/svg">
<path d="M3 6C3.54688 5.99219 4.04688 5.85938 4.5 5.60156V5.60156C4.95312 5.33594 5.32031 4.96875 5.60156 4.5C5.86719 4.02344 6 3.52344 6 3C6 2.47656 5.86719 1.97656 5.60156 1.5C5.32031 1.03125 4.95312 0.664062 4.5 0.398438C4.04688 0.140625 3.54688 0.0078125 3 0C2.45312 0.0078125 1.95312 0.140625 1.5 0.398438C1.04688 0.664062 0.679688 1.03125 0.398438 1.5C0.132812 1.97656 0 2.47656 0 3C0 3.52344 0.132812 4.02344 0.398438 4.5C0.679688 4.96875 1.04688 5.33594 1.5 5.60156C1.95312 5.85938 2.45312 5.99219 3 6V6V6" fill="#DC2626"/>
</svg>
