<svg width="58" height="24" viewBox="0 0 58 24" fill="none" xmlns="http://www.w3.org/2000/svg">
<path d="M29.332 17.1562C29.0117 17.125 28.6953 17.125 28.3828 17.1562C28.4141 16.5781 28.4297 15.9961 28.4297 15.4102V12.6797H24.8555V13.2891H24V8.48438H28.4297V7.74609C28.4297 7.16797 28.4141 6.58594 28.3828 6C28.6953 6.03125 29.0117 6.03125 29.332 6C29.3008 6.58594 29.2852 7.16797 29.2852 7.74609V8.48438H33.7148V13.2891H32.8594V12.6797H29.2852V15.4102C29.2852 15.9961 29.3008 16.5781 29.332 17.1562V17.1562M29.2852 11.9766H32.8594V9.1875H29.2852V11.9766V11.9766M28.4297 11.9766V9.1875H24.8555V11.9766H28.4297V11.9766" fill="#3C4A46"/>
</svg>
