<svg width="16" height="16" viewBox="0 0 16 16" fill="none" xmlns="http://www.w3.org/2000/svg">
<path d="M8 16C9.45833 15.9792 10.7917 15.625 12 14.9375V14.9375C13.2083 14.2292 14.1875 13.25 14.9375 12C15.6458 10.7292 16 9.39583 16 8C16 6.60417 15.6458 5.27083 14.9375 4C14.1875 2.75 13.2083 1.77083 12 1.0625C10.7917 0.375 9.45833 0.0208333 8 0C6.54167 0.0208333 5.20833 0.375 4 1.0625C2.79167 1.77083 1.8125 2.75 1.0625 4C0.354167 5.27083 0 6.60417 0 8C0 9.39583 0.354167 10.7292 1.0625 12C1.8125 13.25 2.79167 14.2292 4 14.9375C5.20833 15.625 6.54167 15.9792 8 16V16V16M8 4C8.45833 4.04167 8.70833 4.29167 8.75 4.75V8.25C8.70833 8.70833 8.45833 8.95833 8 9C7.54167 8.95833 7.29167 8.70833 7.25 8.25V4.75C7.29167 4.29167 7.54167 4.04167 8 4V4V4M7 11C7 10.7083 7.09375 10.4688 7.28125 10.2812V10.2812C7.46875 10.0938 7.70833 10 8 10C8.29167 10 8.53125 10.0938 8.71875 10.2812C8.90625 10.4688 9 10.7083 9 11C9 11.2917 8.90625 11.5312 8.71875 11.7188C8.53125 11.9062 8.29167 12 8 12C7.70833 12 7.46875 11.9062 7.28125 11.7188C7.09375 11.5312 7 11.2917 7 11V11V11" fill="#EF4444"/>
</svg>
