<svg width="10" height="12" viewBox="0 0 10 12" fill="none" xmlns="http://www.w3.org/2000/svg">
<path d="M5.33203 11.1562C5.01172 11.125 4.69531 11.125 4.38281 11.1562C4.41406 10.5781 4.42969 9.99609 4.42969 9.41016V6.67969H0.855469V7.28906H0V2.48438H4.42969V1.74609C4.42969 1.16797 4.41406 0.585938 4.38281 0C4.69531 0.03125 5.01172 0.03125 5.33203 0C5.30078 0.585938 5.28516 1.16797 5.28516 1.74609V2.48438H9.71484V7.28906H8.85938V6.67969H5.28516V9.41016C5.28516 9.99609 5.30078 10.5781 5.33203 11.1562V11.1562M5.28516 5.97656H8.85938V3.1875H5.28516V5.97656V5.97656M4.42969 5.97656V3.1875H0.855469V5.97656H4.42969V5.97656" fill="#3C4A46"/>
</svg>
