<svg width="11" height="12" viewBox="0 0 11 12" fill="none" xmlns="http://www.w3.org/2000/svg">
<path d="M3.46875 10.0898H2.67188V7.52344H8.00391V9.85547H3.46875V10.0898V10.0898M9.45703 10.3477V6.60938H1.34766L1.35938 10.0078C1.35938 10.5547 1.37109 11.0977 1.39453 11.6367C1.09766 11.6055 0.804688 11.6055 0.515625 11.6367C0.539062 11.0977 0.550781 10.5547 0.550781 10.0078V6.02344L10.2656 6.03516V10.5703C10.2656 10.8594 10.1523 11.1055 9.92578 11.3086C9.61328 11.5898 9.03125 11.7266 8.17969 11.7188C8.26562 11.3438 8.17969 11.0156 7.92188 10.7344C8.15625 10.7656 8.44336 10.7832 8.7832 10.7871C9.12305 10.791 9.32031 10.7695 9.375 10.7227C9.42969 10.6758 9.45703 10.5508 9.45703 10.3477V10.3477M2.48438 5.10938C2.57812 4.32812 2.57812 3.54688 2.48438 2.76562H8.17969C8.07812 3.54688 8.07031 4.32812 8.15625 5.10938H2.48438V5.10938M10.7344 1.26562C10.7109 1.47656 10.7109 1.6875 10.7344 1.89844C10.3438 1.875 9.95312 1.86328 9.5625 1.86328H5.75391C5.74609 1.88672 5.73047 1.88672 5.70703 1.86328H1.17188C0.78125 1.86328 0.390625 1.875 0 1.89844C0.0234375 1.6875 0.0234375 1.47656 0 1.26562C0.390625 1.28125 0.78125 1.28906 1.17188 1.28906H4.81641L3.97266 0.738281L4.45312 0L6.22266 1.14844L6.12891 1.28906H9.5625C9.95312 1.28906 10.3438 1.28125 10.7344 1.26562V1.26562M7.19531 8.09766H3.46875V9.26953H7.19531V8.09766V8.09766M3.28125 3.33984V4.53516H7.35938L7.37109 3.33984H3.28125V3.33984" fill="#3C4A46"/>
</svg>
