<svg width="14" height="16" viewBox="0 0 14 16" fill="none" xmlns="http://www.w3.org/2000/svg">
<path d="M5.34375 1.625L4.75 2.5H9.28125L8.6875 1.625C8.625 1.54167 8.55208 1.5 8.46875 1.5H5.53125C5.44792 1.5 5.375 1.54167 5.3125 1.625H5.34375V1.625M9.9375 0.78125L11.0625 2.5H11.5H13H13.25C13.7083 2.54167 13.9583 2.79167 14 3.25C13.9583 3.70833 13.7083 3.95833 13.25 4H13V13.5C12.9792 14.2083 12.7396 14.8021 12.2812 15.2812C11.8021 15.7396 11.2083 15.9792 10.5 16H3.5C2.79167 15.9792 2.19792 15.7396 1.71875 15.2812C1.26042 14.8021 1.02083 14.2083 1 13.5V4H0.75C0.291667 3.95833 0.0416667 3.70833 0 3.25C0.0416667 2.79167 0.291667 2.54167 0.75 2.5H1H2.5H2.9375L4.09375 0.78125C4.44792 0.28125 4.92708 0.0208333 5.53125 0H8.46875C9.07292 0.0208333 9.55208 0.28125 9.90625 0.78125H9.9375V0.78125M2.5 4V13.5C2.5 13.7917 2.59375 14.0312 2.78125 14.2188C2.96875 14.4062 3.20833 14.5 3.5 14.5H10.5C10.7917 14.5 11.0312 14.4062 11.2188 14.2188C11.4062 14.0312 11.5 13.7917 11.5 13.5V4H2.5V4V4M5 6V12.5C4.97917 12.8125 4.8125 12.9792 4.5 13C4.1875 12.9792 4.02083 12.8125 4 12.5V6C4.02083 5.6875 4.1875 5.52083 4.5 5.5C4.8125 5.52083 4.97917 5.6875 5 6V6V6M7.5 6V12.5C7.47917 12.8125 7.3125 12.9792 7 13C6.6875 12.9792 6.52083 12.8125 6.5 12.5V6C6.52083 5.6875 6.6875 5.52083 7 5.5C7.3125 5.52083 7.47917 5.6875 7.5 6V6V6M10 6V12.5C9.97917 12.8125 9.8125 12.9792 9.5 13C9.1875 12.9792 9.02083 12.8125 9 12.5V6C9.02083 5.6875 9.1875 5.52083 9.5 5.5C9.8125 5.52083 9.97917 5.6875 10 6V6V6" fill="#888888"/>
</svg>
